Coordinates
version=1
nRows=4
nColumns=63
inDegrees=yes

Units are S.I. units (second, meters, Newtons, ...)
If the header above contains a line with 'inDegrees', this indicates whether rotational values are in degrees (yes) or radians (no).

endheader
time	pelvis_tilt	pelvis_list	pelvis_rotation	pelvis_tx	pelvis_ty	pelvis_tz	hip_flexion_r	hip_adduction_r	hip_rotation_r	knee_angle_r	knee_angle_r_beta	ankle_angle_r	subtalar_angle_r	mtp_angle_r	hip_flexion_l	hip_adduction_l	hip_rotation_l	knee_angle_l	knee_angle_l_beta	ankle_angle_l	subtalar_angle_l	mtp_angle_l	L5_S1_Flex_Ext	L5_S1_Lat_Bending	L5_S1_axial_rotation	L4_L5_Flex_Ext	L4_L5_Lat_Bending	L4_L5_axial_rotation	L3_L4_Flex_Ext	L3_L4_Lat_Bending	L3_L4_axial_rotation	L2_L3_Flex_Ext	L2_L3_Lat_Bending	L2_L3_axial_rotation	L1_L2_Flex_Ext	L1_L2_Lat_Bending	L1_L2_axial_rotation	L1_T12_Flex_Ext	L1_T12_Lat_Bending	L1_T12_axial_rotation	Abs_r3	Abs_r2	Abs_r1	Abs_t1	Abs_t2	neck_flexion	neck_bending	neck_rotation	arm_flex_r	arm_add_r	arm_rot_r	elbow_flex_r	pro_sup_r	wrist_flex_r	wrist_dev_r	arm_flex_l	arm_add_l	arm_rot_l	elbow_flex_l	pro_sup_l	wrist_flex_l	wrist_dev_l
      7.93333333	      7.94554382	    -34.21148132	     93.79694512	      0.08730646	      0.66547536	      0.62207725	     81.62143443	      0.39888837	     -0.76335223	     73.98094917	      1.29121115	     54.44702043	     -6.65028898	      0.00000000	     80.24952935	     -4.50164679	      2.09754332	     73.87914193	      1.28943428	     56.49033355	     13.16351772	      0.00000000	      0.27404910	      2.90171092	     -0.15074142	      0.50893658	      3.85927553	     -0.16016276	      0.45023527	      7.05521994	     -0.16016276	      0.31321072	      7.05521994	     -0.13189874	      0.25448199	      5.91716891	     -0.12247740	      0.15659166	      4.49475022	     -0.11305606	      1.95750531	     32.82473429	     -0.83837854	      0.00000000	      0.00000000	     28.44759173	    -14.40124847	     18.89091112	    -10.09501835	    -25.40556457	     44.76044099	     16.99046984	      3.26213932	     -4.10823900	    -13.00844712	     34.62234940	    -11.14639106	     -7.40240326	    116.81950811	     81.91339650	     -1.94382935	     10.92656378
      7.95000000	      7.97684175	    -34.12156593	     93.77447683	      0.08644513	      0.66667256	      0.62168856	     81.38114086	      0.33597397	     -0.84543338	     73.78558185	      1.28780134	     54.21912985	     -6.66340669	      0.00000000	     80.12969503	     -4.41906919	      2.24501746	     73.81169777	      1.28825715	     56.57910070	     13.32298061	      0.00000000	      0.29349154	      2.91010867	     -0.13244844	      0.54504314	      3.87044454	     -0.14072646	      0.48217725	      7.07563823	     -0.14072646	      0.33543148	      7.07563823	     -0.11589238	      0.27253624	      5.93429361	     -0.10761435	      0.16770107	      4.50775834	     -0.09933633	      2.09638073	     32.91973134	     -0.73663847	      0.00000000	      0.00000000	     28.44806119	    -14.47754118	     18.80717121	     -9.72102777	    -25.74249857	     44.88328507	     16.74420106	      3.36913112	     -4.20410268	    -12.80838433	     34.38489590	    -10.97160918	     -7.11119653	    116.98925939	     81.86420101	     -1.82150119	     10.91503531
      7.96666667	      9.56296516	    -33.59646399	     94.51693096	      0.08528819	      0.66958793	      0.62083331	     80.32748076	      0.72298417	     -2.23846860	     72.94215637	      1.27308079	     54.02360327	     -6.65061620	      0.00000000	     79.79343148	     -4.94023483	      3.47802594	     73.68225825	      1.28599801	     56.75938695	     13.91497744	      0.00000000	      0.26240401	      3.07971570	     -0.12280491	      0.48731048	      4.09602189	     -0.13048022	      0.43110355	      7.48802076	     -0.13048022	      0.29990154	      7.48802076	     -0.10745430	      0.24366836	      6.28015626	     -0.09977899	      0.14993765	      4.77047963	     -0.09210368	      1.87432559	     34.83835999	     -0.68300408	      0.00000000	      0.00000000	     28.45268059	    -15.46622353	     18.59273189	     -8.83039546	    -26.91672429	     47.25815916	     16.16118189	      4.52553527	     -4.66214757	    -10.62899041	     34.17578500	     -9.93527519	     -7.14973758	    116.84171283	     80.90576219	     -1.45758862	     11.16163064
      7.98333333	     10.77732225	    -33.34170246	     95.26892650	      0.08356771	      0.67186849	      0.62026823	     79.67681335	      0.72671412	     -3.39621763	     72.27454788	      1.26142883	     53.88606424	     -6.26254176	      0.00000000	     79.64171525	     -5.01874467	      4.59051717	     73.45485216	      1.28202902	     56.84006185	     14.22819730	      0.00000000	      0.28833902	      3.21988758	     -0.18827993	      0.53547440	      4.28245049	     -0.20004742	      0.47371218	      7.82883467	     -0.20004742	      0.32954267	      7.82883467	     -0.16474494	      0.26775162	      6.56599476	     -0.15297744	      0.16475692	      4.98760587	     -0.14120994	      2.05957680	     36.42401232	     -1.04715647	      0.00000000	      0.00000000	     28.45252002	    -15.08382656	     20.09224830	     -7.48486991	    -28.46199099	     56.33988772	     15.32884877	      3.80978333	     -4.66093894	    -10.51072852	     33.76054393	     -9.44129552	     -7.43341546	    117.03726377	     78.92629233	     -0.64222883	     12.39017355
